{"accessors":[{"bufferView":0,"byteOffset":0,"componentType":5126,"count":218505,"max":[-4.262736797332764,6.349999904632568,-4.252679347991943],"min":[-12.235495567321777,-6.349999904632568,-22.88680648803711],"type":"VEC3"},{"bufferView":1,"byteOffset":0,"componentType":5126,"count":218505,"normalized":false,"type":"VEC2"},{"bufferView":2,"byteOffset":0,"componentType":5125,"count":1311018,"type":"SCALAR"}],"asset":{"generator":"VTK","version":"2.0"},"bufferViews":[{"buffer":0,"byteLength":2622060,"byteOffset":0},{"buffer":1,"byteLength":1748040,"byteOffset":0},{"buffer":2,"byteLength":5244072,"byteOffset":0},{"buffer":3,"byteLength":114,"byteOffset":0}],"buffers":[{"byteLength":2622060,"uri":"buffer4206747.bin"},{"byteLength":1748040,"uri":"buffer4848789.bin"},{"byteLength":5244072,"uri":"buffer4848790.bin"},{"byteLength":114,"uri":"buffer4849284.bin"}],"cameras":[{"perspective":{"aspectRatio":1.1920199501246882,"yfov":0.5235987755982988,"zfar":182.64749299651692,"znear":130.52319244920307},"type":"perspective"}],"images":[{"bufferView":3,"mimeType":"image/png"}],"materials":[{"pbrMetallicRoughness":{"baseColorFactor":[1.0,1.0,1.0,1.0],"baseColorTexture":{"index":0,"texCoord":0},"metallicFactor":0.0,"roughnessFactor":1.0}}],"meshes":[{"name":"mesh0","primitives":[{"attributes":{"POSITION":0,"TEXCOORD_0":1},"indices":2,"material":0,"mode":4}]}],"nodes":[{"mesh":0,"name":"mesh0"},{"camera":0,"matrix":[0.7803817571733763,-0.5994133020459668,-0.1780674209431489,-0.0,0.39012634616156766,0.24417203942373297,0.8877958375630514,-0.0,-0.4886775492097202,-0.7622884680316276,0.4243943265459326,-0.0,-76.77004766324542,-119.75365375096374,53.97131062114716,1.0],"name":"Camera Node"},{"children":[0,1],"name":"Renderer Node"}],"samplers":[{"magFilter":9728,"minFilter":9728,"wrapS":33071,"wrapT":33071}],"scene":0,"scenes":[{"name":"Layer 0","nodes":[2]}],"textures":[{"sampler":0,"source":0}]}